<svg width="35" height="10" viewBox="0 0 35 10" fill="none" xmlns="http://www.w3.org/2000/svg">
<path d="M4.13672 5.6543H1.85742V4.73438H4.13672C4.57812 4.73438 4.93555 4.66406 5.20898 4.52344C5.48242 4.38281 5.68164 4.1875 5.80664 3.9375C5.93555 3.6875 6 3.40234 6 3.08203C6 2.78906 5.93555 2.51367 5.80664 2.25586C5.68164 1.99805 5.48242 1.79102 5.20898 1.63477C4.93555 1.47461 4.57812 1.39453 4.13672 1.39453H2.12109V9H0.990234V0.46875H4.13672C4.78125 0.46875 5.32617 0.580078 5.77148 0.802734C6.2168 1.02539 6.55469 1.33398 6.78516 1.72852C7.01562 2.11914 7.13086 2.56641 7.13086 3.07031C7.13086 3.61719 7.01562 4.08398 6.78516 4.4707C6.55469 4.85742 6.2168 5.15234 5.77148 5.35547C5.32617 5.55469 4.78125 5.6543 4.13672 5.6543ZM9.60047 0V9H8.51648V0H9.60047ZM9.34266 5.58984L8.89148 5.57227C8.89539 5.13867 8.95984 4.73828 9.08484 4.37109C9.20984 4 9.38562 3.67773 9.61219 3.4043C9.83875 3.13086 10.1083 2.91992 10.4208 2.77148C10.7372 2.61914 11.0868 2.54297 11.4696 2.54297C11.7821 2.54297 12.0634 2.58594 12.3134 2.67188C12.5634 2.75391 12.7762 2.88672 12.952 3.07031C13.1317 3.25391 13.2684 3.49219 13.3622 3.78516C13.4559 4.07422 13.5028 4.42773 13.5028 4.8457V9H12.413V4.83398C12.413 4.50195 12.3641 4.23633 12.2665 4.03711C12.1688 3.83398 12.0262 3.6875 11.8387 3.59766C11.6512 3.50391 11.4208 3.45703 11.1473 3.45703C10.8778 3.45703 10.6317 3.51367 10.4091 3.62695C10.1903 3.74023 10.0009 3.89648 9.8407 4.0957C9.68445 4.29492 9.56141 4.52344 9.47156 4.78125C9.38562 5.03516 9.34266 5.30469 9.34266 5.58984ZM14.9587 5.90039V5.76562C14.9587 5.30859 15.0252 4.88477 15.158 4.49414C15.2908 4.09961 15.4822 3.75781 15.7322 3.46875C15.9822 3.17578 16.2849 2.94922 16.6404 2.78906C16.9959 2.625 17.3943 2.54297 17.8357 2.54297C18.281 2.54297 18.6814 2.625 19.0369 2.78906C19.3962 2.94922 19.7009 3.17578 19.9509 3.46875C20.2048 3.75781 20.3982 4.09961 20.531 4.49414C20.6638 4.88477 20.7302 5.30859 20.7302 5.76562V5.90039C20.7302 6.35742 20.6638 6.78125 20.531 7.17188C20.3982 7.5625 20.2048 7.9043 19.9509 8.19727C19.7009 8.48633 19.3982 8.71289 19.0427 8.87695C18.6912 9.03711 18.2927 9.11719 17.8474 9.11719C17.4021 9.11719 17.0017 9.03711 16.6462 8.87695C16.2908 8.71289 15.9861 8.48633 15.7322 8.19727C15.4822 7.9043 15.2908 7.5625 15.158 7.17188C15.0252 6.78125 14.9587 6.35742 14.9587 5.90039ZM16.0427 5.76562V5.90039C16.0427 6.2168 16.0798 6.51562 16.1541 6.79688C16.2283 7.07422 16.3396 7.32031 16.488 7.53516C16.6404 7.75 16.8298 7.91992 17.0564 8.04492C17.283 8.16602 17.5466 8.22656 17.8474 8.22656C18.1443 8.22656 18.4041 8.16602 18.6267 8.04492C18.8533 7.91992 19.0408 7.75 19.1892 7.53516C19.3377 7.32031 19.449 7.07422 19.5232 6.79688C19.6013 6.51562 19.6404 6.2168 19.6404 5.90039V5.76562C19.6404 5.45312 19.6013 5.1582 19.5232 4.88086C19.449 4.59961 19.3357 4.35156 19.1834 4.13672C19.0349 3.91797 18.8474 3.74609 18.6209 3.62109C18.3982 3.49609 18.1365 3.43359 17.8357 3.43359C17.5388 3.43359 17.2771 3.49609 17.0505 3.62109C16.8279 3.74609 16.6404 3.91797 16.488 4.13672C16.3396 4.35156 16.2283 4.59961 16.1541 4.88086C16.0798 5.1582 16.0427 5.45312 16.0427 5.76562ZM23.2936 4.01367V9H22.2096V2.66016H23.235L23.2936 4.01367ZM23.0358 5.58984L22.5846 5.57227C22.5885 5.13867 22.653 4.73828 22.778 4.37109C22.903 4 23.0788 3.67773 23.3053 3.4043C23.5319 3.13086 23.8014 2.91992 24.1139 2.77148C24.4303 2.61914 24.7799 2.54297 25.1627 2.54297C25.4752 2.54297 25.7565 2.58594 26.0065 2.67188C26.2565 2.75391 26.4694 2.88672 26.6452 3.07031C26.8248 3.25391 26.9616 3.49219 27.0553 3.78516C27.1491 4.07422 27.1959 4.42773 27.1959 4.8457V9H26.1061V4.83398C26.1061 4.50195 26.0573 4.23633 25.9596 4.03711C25.862 3.83398 25.7194 3.6875 25.5319 3.59766C25.3444 3.50391 25.1139 3.45703 24.8405 3.45703C24.5709 3.45703 24.3248 3.51367 24.1022 3.62695C23.8834 3.74023 23.694 3.89648 23.5338 4.0957C23.3776 4.29492 23.2545 4.52344 23.1647 4.78125C23.0788 5.03516 23.0358 5.30469 23.0358 5.58984ZM31.5933 9.11719C31.1519 9.11719 30.7515 9.04297 30.3921 8.89453C30.0366 8.74219 29.73 8.5293 29.4722 8.25586C29.2183 7.98242 29.023 7.6582 28.8862 7.2832C28.7495 6.9082 28.6812 6.49805 28.6812 6.05273V5.80664C28.6812 5.29102 28.7573 4.83203 28.9097 4.42969C29.062 4.02344 29.2691 3.67969 29.5308 3.39844C29.7925 3.11719 30.0894 2.9043 30.4214 2.75977C30.7534 2.61523 31.0972 2.54297 31.4527 2.54297C31.9058 2.54297 32.2964 2.62109 32.6245 2.77734C32.9566 2.93359 33.228 3.15234 33.439 3.43359C33.6499 3.71094 33.8062 4.03906 33.9077 4.41797C34.0093 4.79297 34.0601 5.20312 34.0601 5.64844V6.13477H29.3257V5.25H32.9761V5.16797C32.9605 4.88672 32.9019 4.61328 32.8003 4.34766C32.7027 4.08203 32.5464 3.86328 32.3316 3.69141C32.1167 3.51953 31.8237 3.43359 31.4527 3.43359C31.2066 3.43359 30.98 3.48633 30.773 3.5918C30.5659 3.69336 30.3882 3.8457 30.2398 4.04883C30.0913 4.25195 29.9761 4.5 29.8941 4.79297C29.812 5.08594 29.771 5.42383 29.771 5.80664V6.05273C29.771 6.35352 29.812 6.63672 29.8941 6.90234C29.98 7.16406 30.103 7.39453 30.2632 7.59375C30.4273 7.79297 30.6245 7.94922 30.855 8.0625C31.0894 8.17578 31.355 8.23242 31.6519 8.23242C32.0347 8.23242 32.3589 8.1543 32.6245 7.99805C32.8902 7.8418 33.1226 7.63281 33.3218 7.37109L33.978 7.89258C33.8413 8.09961 33.6675 8.29688 33.4566 8.48438C33.2456 8.67188 32.9859 8.82422 32.6773 8.94141C32.3726 9.05859 32.0112 9.11719 31.5933 9.11719Z" fill="#8E8F99"/>
</svg>
